<?xml version="1.0" encoding="utf-8"?>
<!-- Generator: Adobe Illustrator 19.0.0, SVG Export Plug-In . SVG Version: 6.00 Build 0)  -->
<svg version="1.1" id="Layer_1" xmlns="http://www.w3.org/2000/svg" xmlns:xlink="http://www.w3.org/1999/xlink" x="0px" y="0px"
	 width="71.3px" height="72.6px" viewBox="0 0 71.3 72.6" style="enable-background:new 0 0 71.3 72.6;" xml:space="preserve">
<style type="text/css">
	.st0{fill:#FFFFFF;}
</style>
<g id="XMLID_28_">
	<polygon id="XMLID_27_" class="st0" points="6.2,30.1 6.2,42.5 9.1,45.4 9.1,27.1 	"/>
	<path class="st0" d="M69.4,28.6c-1.1-0.8-33.1-24-33.1-24l0-4.6l-3.1,3.1v23l-2.5,2.5v-23l-2.9,2.9v23L25.3,34V11l-2.9,2.9v23
		l-2.5,2.5v-23L17,19.3v22.9l-2.5,2.5v-23l-2.9,2.9v23.2l24.7,24.7V38.8l22.5,0c0.6,0.4,0,0,3.1,2.2c3.9,0,5.2-0.5,6.7-2.2
		c2.7-2.9,2.7-2.9,2.7-6.4C71.3,30.2,70.9,29.7,69.4,28.6z M42.2,18.8c-0.9,0-1.6-0.7-1.6-1.6c0-0.9,0.7-1.6,1.6-1.6
		c0.9,0,1.6,0.7,1.6,1.6C43.8,18,43.1,18.8,42.2,18.8z"/>
	<polygon class="st0" points="0,36.3 3.7,40 3.7,32.5 	"/>
</g>
</svg>
