<?xml version="1.0" standalone="no"?>
<!DOCTYPE svg PUBLIC "-//W3C//DTD SVG 20010904//EN"
 "http://www.w3.org/TR/2001/REC-SVG-20010904/DTD/svg10.dtd">
<svg version="1.0" xmlns="http://www.w3.org/2000/svg"
 width="260.000000pt" height="260.000000pt" viewBox="0 0 260.000000 260.000000"
 preserveAspectRatio="xMidYMid meet">
<metadata>
Created by potrace 1.11, written by Peter Selinger 2001-2013
</metadata>
<g transform="translate(0.000000,260.000000) scale(0.100000,-0.100000)"
fill="#000000" stroke="none">
<path d="M1263 2518 l-52 -53 0 -404 1 -404 -41 -41 -41 -41 -1 55 c0 30 0
212 0 404 l-1 349 -52 -52 -53 -53 0 -405 0 -405 -39 -39 c-21 -21 -40 -37
-42 -34 -3 3 -5 180 -5 395 1 214 -2 390 -6 390 -4 0 -28 -21 -53 -47 l-47
-48 0 -396 c1 -249 -3 -404 -9 -415 -17 -32 -72 -79 -72 -63 -1 8 -1 189 -1
403 l0 390 -53 -53 -53 -53 0 -404 0 -405 -42 -40 -41 -40 0 403 0 403 -52
-53 -53 -52 0 -410 -1 -409 433 -433 c238 -238 433 -426 434 -418 0 8 1 275 1
592 l1 578 86 0 c47 1 225 1 395 1 l309 0 57 -40 c53 -38 61 -40 111 -35 97 9
122 21 184 83 79 81 88 99 88 198 0 68 -4 89 -19 109 -10 14 -215 166 -454
340 -552 399 -695 503 -730 532 -27 21 -29 26 -27 97 2 41 0 75 -3 75 -3 0
-29 -24 -57 -52z m299 -500 c41 -33 20 -98 -31 -98 -51 0 -75 56 -39 90 25 23
47 25 70 8z"/>
<path d="M315 1570 l-50 -51 0 -217 -1 -217 53 -55 53 -55 0 323 c0 177 -1
322 -3 322 -1 0 -25 -23 -52 -50z"/>
<path d="M110 1365 l-65 -65 68 -68 67 -67 0 133 c0 72 -1 132 -3 132 -1 0
-32 -29 -67 -65z"/>
</g>
</svg>
